<mxfile host="app.diagrams.net" modified="2023-03-04T13:45:35.807Z" agent="5.0 (Windows NT 10.0; Win64; x64) AppleWebKit/537.36 (KHTML, like Gecko) Chrome/99.0.4844.74 Safari/537.36" etag="rWRRopAroJVPlVzaUKDn" version="21.0.2" type="github">
  <diagram name="第 1 页" id="KYAja7LZ_OW-OlCbPauD">
    <mxGraphModel dx="2282" dy="1044" grid="0" gridSize="10" guides="1" tooltips="1" connect="1" arrows="1" fold="1" page="0" pageScale="1" pageWidth="827" pageHeight="1169" math="0" shadow="0">
      <root>
        <mxCell id="0" />
        <mxCell id="1" parent="0" />
        <mxCell id="xV0KuZaxG_oDVM3ipz2L-14" style="rounded=0;orthogonalLoop=1;jettySize=auto;html=1;entryX=1;entryY=0.5;entryDx=0;entryDy=0;fontFamily=Helvetica;fontSize=12;fontColor=default;exitX=0;exitY=0;exitDx=0;exitDy=0;" parent="1" source="xV0KuZaxG_oDVM3ipz2L-1" target="xV0KuZaxG_oDVM3ipz2L-11" edge="1">
          <mxGeometry relative="1" as="geometry" />
        </mxCell>
        <mxCell id="xV0KuZaxG_oDVM3ipz2L-17" value="wasDestroyedOnDate" style="edgeLabel;html=1;align=center;verticalAlign=middle;resizable=0;points=[];fontSize=12;fontFamily=Helvetica;fontColor=default;" parent="xV0KuZaxG_oDVM3ipz2L-14" vertex="1" connectable="0">
          <mxGeometry x="-0.1578" y="-1" relative="1" as="geometry">
            <mxPoint y="-1" as="offset" />
          </mxGeometry>
        </mxCell>
        <mxCell id="xV0KuZaxG_oDVM3ipz2L-15" value="diedOnDate" style="rounded=0;orthogonalLoop=1;jettySize=auto;html=1;entryX=1;entryY=0.5;entryDx=0;entryDy=0;fontFamily=Helvetica;fontSize=12;fontColor=default;exitX=0;exitY=0.5;exitDx=0;exitDy=0;" parent="1" source="xV0KuZaxG_oDVM3ipz2L-1" target="xV0KuZaxG_oDVM3ipz2L-12" edge="1">
          <mxGeometry x="0.0097" relative="1" as="geometry">
            <mxPoint as="offset" />
          </mxGeometry>
        </mxCell>
        <mxCell id="xV0KuZaxG_oDVM3ipz2L-16" style="rounded=0;orthogonalLoop=1;jettySize=auto;html=1;entryX=1;entryY=0.5;entryDx=0;entryDy=0;fontFamily=Helvetica;fontSize=12;fontColor=default;exitX=0;exitY=1;exitDx=0;exitDy=0;" parent="1" source="xV0KuZaxG_oDVM3ipz2L-1" target="xV0KuZaxG_oDVM3ipz2L-13" edge="1">
          <mxGeometry relative="1" as="geometry">
            <mxPoint x="-104" y="317" as="sourcePoint" />
          </mxGeometry>
        </mxCell>
        <mxCell id="fiagM2r2Zui3SZ6oxfVY-1" value="wasBornOnDate" style="edgeLabel;html=1;align=center;verticalAlign=middle;resizable=0;points=[];fontSize=12;fontFamily=Helvetica;fontColor=default;" vertex="1" connectable="0" parent="xV0KuZaxG_oDVM3ipz2L-16">
          <mxGeometry x="-0.208" y="-2" relative="1" as="geometry">
            <mxPoint as="offset" />
          </mxGeometry>
        </mxCell>
        <mxCell id="fiagM2r2Zui3SZ6oxfVY-3" value="actedIn" style="rounded=0;orthogonalLoop=1;jettySize=auto;html=1;entryX=0.5;entryY=0;entryDx=0;entryDy=0;fontFamily=Helvetica;fontSize=12;fontColor=default;" edge="1" parent="1" source="xV0KuZaxG_oDVM3ipz2L-1" target="xV0KuZaxG_oDVM3ipz2L-7">
          <mxGeometry relative="1" as="geometry" />
        </mxCell>
        <mxCell id="fiagM2r2Zui3SZ6oxfVY-4" value="created" style="rounded=0;orthogonalLoop=1;jettySize=auto;html=1;entryX=0;entryY=0;entryDx=0;entryDy=0;fontFamily=Helvetica;fontSize=12;fontColor=default;" edge="1" parent="1" source="xV0KuZaxG_oDVM3ipz2L-1" target="xV0KuZaxG_oDVM3ipz2L-8">
          <mxGeometry relative="1" as="geometry" />
        </mxCell>
        <mxCell id="xV0KuZaxG_oDVM3ipz2L-1" value="Buster_Crabbe" style="rounded=0;whiteSpace=wrap;html=1;" parent="1" vertex="1">
          <mxGeometry x="-103" y="271" width="115" height="43" as="geometry" />
        </mxCell>
        <mxCell id="xV0KuZaxG_oDVM3ipz2L-7" value="King_of_the_Congo" style="rounded=0;whiteSpace=wrap;html=1;" parent="1" vertex="1">
          <mxGeometry x="-158" y="373" width="121" height="45" as="geometry" />
        </mxCell>
        <mxCell id="fiagM2r2Zui3SZ6oxfVY-2" value="wasCreatedOnDate" style="rounded=0;orthogonalLoop=1;jettySize=auto;html=1;entryX=0.5;entryY=1;entryDx=0;entryDy=0;fontFamily=Helvetica;fontSize=12;fontColor=default;" edge="1" parent="1" source="xV0KuZaxG_oDVM3ipz2L-8" target="xV0KuZaxG_oDVM3ipz2L-9">
          <mxGeometry relative="1" as="geometry" />
        </mxCell>
        <mxCell id="xV0KuZaxG_oDVM3ipz2L-8" value="Flash_Gordon_(serial)" style="rounded=0;whiteSpace=wrap;html=1;" parent="1" vertex="1">
          <mxGeometry x="19" y="369" width="130" height="45" as="geometry" />
        </mxCell>
        <mxCell id="xV0KuZaxG_oDVM3ipz2L-9" value="1936" style="rounded=0;whiteSpace=wrap;html=1;" parent="1" vertex="1">
          <mxGeometry x="74" y="224" width="115" height="43" as="geometry" />
        </mxCell>
        <mxCell id="xV0KuZaxG_oDVM3ipz2L-11" value="2002" style="rounded=0;whiteSpace=wrap;html=1;" parent="1" vertex="1">
          <mxGeometry x="-317" y="178" width="115" height="43" as="geometry" />
        </mxCell>
        <mxCell id="xV0KuZaxG_oDVM3ipz2L-12" value="1983" style="rounded=0;whiteSpace=wrap;html=1;" parent="1" vertex="1">
          <mxGeometry x="-321" y="271" width="115" height="43" as="geometry" />
        </mxCell>
        <mxCell id="xV0KuZaxG_oDVM3ipz2L-13" value="1908" style="rounded=0;whiteSpace=wrap;html=1;" parent="1" vertex="1">
          <mxGeometry x="-321" y="342" width="115" height="43" as="geometry" />
        </mxCell>
        <mxCell id="fiagM2r2Zui3SZ6oxfVY-5" value="" style="shape=table;startSize=0;container=1;collapsible=0;childLayout=tableLayout;fontSize=16;rounded=0;strokeColor=default;fontFamily=Helvetica;fontColor=default;fillColor=default;html=1;" vertex="1" parent="1">
          <mxGeometry x="330" y="266.5" width="132" height="52" as="geometry" />
        </mxCell>
        <mxCell id="fiagM2r2Zui3SZ6oxfVY-6" value="" style="shape=tableRow;horizontal=0;startSize=0;swimlaneHead=0;swimlaneBody=0;strokeColor=inherit;top=0;left=0;bottom=0;right=0;collapsible=0;dropTarget=0;fillColor=none;points=[[0,0.5],[1,0.5]];portConstraint=eastwest;fontSize=16;rounded=0;fontFamily=Helvetica;fontColor=default;html=1;" vertex="1" parent="fiagM2r2Zui3SZ6oxfVY-5">
          <mxGeometry width="132" height="16" as="geometry" />
        </mxCell>
        <mxCell id="fiagM2r2Zui3SZ6oxfVY-7" value="" style="shape=partialRectangle;html=1;whiteSpace=wrap;connectable=0;strokeColor=inherit;overflow=hidden;fillColor=none;top=0;left=0;bottom=0;right=0;pointerEvents=1;fontSize=16;rounded=0;fontFamily=Helvetica;fontColor=default;" vertex="1" parent="fiagM2r2Zui3SZ6oxfVY-6">
          <mxGeometry width="27" height="16" as="geometry">
            <mxRectangle width="27" height="16" as="alternateBounds" />
          </mxGeometry>
        </mxCell>
        <mxCell id="fiagM2r2Zui3SZ6oxfVY-8" value="" style="shape=partialRectangle;html=1;whiteSpace=wrap;connectable=0;strokeColor=inherit;overflow=hidden;fillColor=none;top=0;left=0;bottom=0;right=0;pointerEvents=1;fontSize=16;rounded=0;fontFamily=Helvetica;fontColor=default;" vertex="1" parent="fiagM2r2Zui3SZ6oxfVY-6">
          <mxGeometry x="27" width="26" height="16" as="geometry">
            <mxRectangle width="26" height="16" as="alternateBounds" />
          </mxGeometry>
        </mxCell>
        <mxCell id="fiagM2r2Zui3SZ6oxfVY-9" value="" style="shape=partialRectangle;html=1;whiteSpace=wrap;connectable=0;strokeColor=inherit;overflow=hidden;fillColor=none;top=0;left=0;bottom=0;right=0;pointerEvents=1;fontSize=16;rounded=0;fontFamily=Helvetica;fontColor=default;" vertex="1" parent="fiagM2r2Zui3SZ6oxfVY-6">
          <mxGeometry x="53" width="26" height="16" as="geometry">
            <mxRectangle width="26" height="16" as="alternateBounds" />
          </mxGeometry>
        </mxCell>
        <mxCell id="fiagM2r2Zui3SZ6oxfVY-21" style="shape=partialRectangle;html=1;whiteSpace=wrap;connectable=0;strokeColor=inherit;overflow=hidden;fillColor=none;top=0;left=0;bottom=0;right=0;pointerEvents=1;fontSize=16;rounded=0;fontFamily=Helvetica;fontColor=default;" vertex="1" parent="fiagM2r2Zui3SZ6oxfVY-6">
          <mxGeometry x="79" width="26" height="16" as="geometry">
            <mxRectangle width="26" height="16" as="alternateBounds" />
          </mxGeometry>
        </mxCell>
        <mxCell id="fiagM2r2Zui3SZ6oxfVY-18" style="shape=partialRectangle;html=1;whiteSpace=wrap;connectable=0;strokeColor=inherit;overflow=hidden;fillColor=none;top=0;left=0;bottom=0;right=0;pointerEvents=1;fontSize=16;rounded=0;fontFamily=Helvetica;fontColor=default;" vertex="1" parent="fiagM2r2Zui3SZ6oxfVY-6">
          <mxGeometry x="105" width="27" height="16" as="geometry">
            <mxRectangle width="27" height="16" as="alternateBounds" />
          </mxGeometry>
        </mxCell>
        <mxCell id="fiagM2r2Zui3SZ6oxfVY-10" value="" style="shape=tableRow;horizontal=0;startSize=0;swimlaneHead=0;swimlaneBody=0;strokeColor=inherit;top=0;left=0;bottom=0;right=0;collapsible=0;dropTarget=0;fillColor=none;points=[[0,0.5],[1,0.5]];portConstraint=eastwest;fontSize=16;rounded=0;fontFamily=Helvetica;fontColor=default;html=1;" vertex="1" parent="fiagM2r2Zui3SZ6oxfVY-5">
          <mxGeometry y="16" width="132" height="20" as="geometry" />
        </mxCell>
        <mxCell id="fiagM2r2Zui3SZ6oxfVY-11" value="" style="shape=partialRectangle;html=1;whiteSpace=wrap;connectable=0;strokeColor=inherit;overflow=hidden;fillColor=none;top=0;left=0;bottom=0;right=0;pointerEvents=1;fontSize=16;rounded=0;fontFamily=Helvetica;fontColor=default;" vertex="1" parent="fiagM2r2Zui3SZ6oxfVY-10">
          <mxGeometry width="27" height="20" as="geometry">
            <mxRectangle width="27" height="20" as="alternateBounds" />
          </mxGeometry>
        </mxCell>
        <mxCell id="fiagM2r2Zui3SZ6oxfVY-12" value="" style="shape=partialRectangle;html=1;whiteSpace=wrap;connectable=0;strokeColor=inherit;overflow=hidden;fillColor=none;top=0;left=0;bottom=0;right=0;pointerEvents=1;fontSize=16;rounded=0;fontFamily=Helvetica;fontColor=default;" vertex="1" parent="fiagM2r2Zui3SZ6oxfVY-10">
          <mxGeometry x="27" width="26" height="20" as="geometry">
            <mxRectangle width="26" height="20" as="alternateBounds" />
          </mxGeometry>
        </mxCell>
        <mxCell id="fiagM2r2Zui3SZ6oxfVY-13" value="" style="shape=partialRectangle;html=1;whiteSpace=wrap;connectable=0;strokeColor=inherit;overflow=hidden;fillColor=none;top=0;left=0;bottom=0;right=0;pointerEvents=1;fontSize=16;rounded=0;fontFamily=Helvetica;fontColor=default;" vertex="1" parent="fiagM2r2Zui3SZ6oxfVY-10">
          <mxGeometry x="53" width="26" height="20" as="geometry">
            <mxRectangle width="26" height="20" as="alternateBounds" />
          </mxGeometry>
        </mxCell>
        <mxCell id="fiagM2r2Zui3SZ6oxfVY-22" style="shape=partialRectangle;html=1;whiteSpace=wrap;connectable=0;strokeColor=inherit;overflow=hidden;fillColor=none;top=0;left=0;bottom=0;right=0;pointerEvents=1;fontSize=16;rounded=0;fontFamily=Helvetica;fontColor=default;" vertex="1" parent="fiagM2r2Zui3SZ6oxfVY-10">
          <mxGeometry x="79" width="26" height="20" as="geometry">
            <mxRectangle width="26" height="20" as="alternateBounds" />
          </mxGeometry>
        </mxCell>
        <mxCell id="fiagM2r2Zui3SZ6oxfVY-19" style="shape=partialRectangle;html=1;whiteSpace=wrap;connectable=0;strokeColor=inherit;overflow=hidden;fillColor=none;top=0;left=0;bottom=0;right=0;pointerEvents=1;fontSize=16;rounded=0;fontFamily=Helvetica;fontColor=default;" vertex="1" parent="fiagM2r2Zui3SZ6oxfVY-10">
          <mxGeometry x="105" width="27" height="20" as="geometry">
            <mxRectangle width="27" height="20" as="alternateBounds" />
          </mxGeometry>
        </mxCell>
        <mxCell id="fiagM2r2Zui3SZ6oxfVY-14" value="" style="shape=tableRow;horizontal=0;startSize=0;swimlaneHead=0;swimlaneBody=0;strokeColor=inherit;top=0;left=0;bottom=0;right=0;collapsible=0;dropTarget=0;fillColor=none;points=[[0,0.5],[1,0.5]];portConstraint=eastwest;fontSize=16;rounded=0;fontFamily=Helvetica;fontColor=default;html=1;" vertex="1" parent="fiagM2r2Zui3SZ6oxfVY-5">
          <mxGeometry y="36" width="132" height="16" as="geometry" />
        </mxCell>
        <mxCell id="fiagM2r2Zui3SZ6oxfVY-15" value="" style="shape=partialRectangle;html=1;whiteSpace=wrap;connectable=0;strokeColor=inherit;overflow=hidden;fillColor=none;top=0;left=0;bottom=0;right=0;pointerEvents=1;fontSize=16;rounded=0;fontFamily=Helvetica;fontColor=default;" vertex="1" parent="fiagM2r2Zui3SZ6oxfVY-14">
          <mxGeometry width="27" height="16" as="geometry">
            <mxRectangle width="27" height="16" as="alternateBounds" />
          </mxGeometry>
        </mxCell>
        <mxCell id="fiagM2r2Zui3SZ6oxfVY-16" value="" style="shape=partialRectangle;html=1;whiteSpace=wrap;connectable=0;strokeColor=inherit;overflow=hidden;fillColor=none;top=0;left=0;bottom=0;right=0;pointerEvents=1;fontSize=16;rounded=0;fontFamily=Helvetica;fontColor=default;" vertex="1" parent="fiagM2r2Zui3SZ6oxfVY-14">
          <mxGeometry x="27" width="26" height="16" as="geometry">
            <mxRectangle width="26" height="16" as="alternateBounds" />
          </mxGeometry>
        </mxCell>
        <mxCell id="fiagM2r2Zui3SZ6oxfVY-17" value="" style="shape=partialRectangle;html=1;whiteSpace=wrap;connectable=0;strokeColor=inherit;overflow=hidden;fillColor=none;top=0;left=0;bottom=0;right=0;pointerEvents=1;fontSize=16;rounded=0;fontFamily=Helvetica;fontColor=default;" vertex="1" parent="fiagM2r2Zui3SZ6oxfVY-14">
          <mxGeometry x="53" width="26" height="16" as="geometry">
            <mxRectangle width="26" height="16" as="alternateBounds" />
          </mxGeometry>
        </mxCell>
        <mxCell id="fiagM2r2Zui3SZ6oxfVY-23" style="shape=partialRectangle;html=1;whiteSpace=wrap;connectable=0;strokeColor=inherit;overflow=hidden;fillColor=none;top=0;left=0;bottom=0;right=0;pointerEvents=1;fontSize=16;rounded=0;fontFamily=Helvetica;fontColor=default;" vertex="1" parent="fiagM2r2Zui3SZ6oxfVY-14">
          <mxGeometry x="79" width="26" height="16" as="geometry">
            <mxRectangle width="26" height="16" as="alternateBounds" />
          </mxGeometry>
        </mxCell>
        <mxCell id="fiagM2r2Zui3SZ6oxfVY-20" style="shape=partialRectangle;html=1;whiteSpace=wrap;connectable=0;strokeColor=inherit;overflow=hidden;fillColor=none;top=0;left=0;bottom=0;right=0;pointerEvents=1;fontSize=16;rounded=0;fontFamily=Helvetica;fontColor=default;" vertex="1" parent="fiagM2r2Zui3SZ6oxfVY-14">
          <mxGeometry x="105" width="27" height="16" as="geometry">
            <mxRectangle width="27" height="16" as="alternateBounds" />
          </mxGeometry>
        </mxCell>
        <mxCell id="fiagM2r2Zui3SZ6oxfVY-24" value="" style="shape=table;startSize=0;container=1;collapsible=0;childLayout=tableLayout;fontSize=16;rounded=0;strokeColor=default;fontFamily=Helvetica;fontColor=default;fillColor=default;html=1;" vertex="1" parent="1">
          <mxGeometry x="495" y="266.5" width="27" height="52" as="geometry" />
        </mxCell>
        <mxCell id="fiagM2r2Zui3SZ6oxfVY-25" value="" style="shape=tableRow;horizontal=0;startSize=0;swimlaneHead=0;swimlaneBody=0;strokeColor=inherit;top=0;left=0;bottom=0;right=0;collapsible=0;dropTarget=0;fillColor=none;points=[[0,0.5],[1,0.5]];portConstraint=eastwest;fontSize=16;rounded=0;fontFamily=Helvetica;fontColor=default;html=1;" vertex="1" parent="fiagM2r2Zui3SZ6oxfVY-24">
          <mxGeometry width="27" height="16" as="geometry" />
        </mxCell>
        <mxCell id="fiagM2r2Zui3SZ6oxfVY-26" value="" style="shape=partialRectangle;html=1;whiteSpace=wrap;connectable=0;strokeColor=inherit;overflow=hidden;fillColor=none;top=0;left=0;bottom=0;right=0;pointerEvents=1;fontSize=16;rounded=0;fontFamily=Helvetica;fontColor=default;" vertex="1" parent="fiagM2r2Zui3SZ6oxfVY-25">
          <mxGeometry width="27" height="16" as="geometry">
            <mxRectangle width="27" height="16" as="alternateBounds" />
          </mxGeometry>
        </mxCell>
        <mxCell id="fiagM2r2Zui3SZ6oxfVY-31" value="" style="shape=tableRow;horizontal=0;startSize=0;swimlaneHead=0;swimlaneBody=0;strokeColor=inherit;top=0;left=0;bottom=0;right=0;collapsible=0;dropTarget=0;fillColor=none;points=[[0,0.5],[1,0.5]];portConstraint=eastwest;fontSize=16;rounded=0;fontFamily=Helvetica;fontColor=default;html=1;" vertex="1" parent="fiagM2r2Zui3SZ6oxfVY-24">
          <mxGeometry y="16" width="27" height="20" as="geometry" />
        </mxCell>
        <mxCell id="fiagM2r2Zui3SZ6oxfVY-32" value="" style="shape=partialRectangle;html=1;whiteSpace=wrap;connectable=0;strokeColor=inherit;overflow=hidden;fillColor=none;top=0;left=0;bottom=0;right=0;pointerEvents=1;fontSize=16;rounded=0;fontFamily=Helvetica;fontColor=default;" vertex="1" parent="fiagM2r2Zui3SZ6oxfVY-31">
          <mxGeometry width="27" height="20" as="geometry">
            <mxRectangle width="27" height="20" as="alternateBounds" />
          </mxGeometry>
        </mxCell>
        <mxCell id="fiagM2r2Zui3SZ6oxfVY-37" value="" style="shape=tableRow;horizontal=0;startSize=0;swimlaneHead=0;swimlaneBody=0;strokeColor=inherit;top=0;left=0;bottom=0;right=0;collapsible=0;dropTarget=0;fillColor=none;points=[[0,0.5],[1,0.5]];portConstraint=eastwest;fontSize=16;rounded=0;fontFamily=Helvetica;fontColor=default;html=1;" vertex="1" parent="fiagM2r2Zui3SZ6oxfVY-24">
          <mxGeometry y="36" width="27" height="16" as="geometry" />
        </mxCell>
        <mxCell id="fiagM2r2Zui3SZ6oxfVY-38" value="" style="shape=partialRectangle;html=1;whiteSpace=wrap;connectable=0;strokeColor=inherit;overflow=hidden;fillColor=none;top=0;left=0;bottom=0;right=0;pointerEvents=1;fontSize=16;rounded=0;fontFamily=Helvetica;fontColor=default;" vertex="1" parent="fiagM2r2Zui3SZ6oxfVY-37">
          <mxGeometry width="27" height="16" as="geometry">
            <mxRectangle width="27" height="16" as="alternateBounds" />
          </mxGeometry>
        </mxCell>
      </root>
    </mxGraphModel>
  </diagram>
</mxfile>
